<svg xmlns="http://www.w3.org/2000/svg" version="1.1" xmlns:xlink="http://www.w3.org/1999/xlink" xmlns:svgjs="http://svgjs.dev/svgjs" viewBox="0 0 800 800" opacity="0.1"><defs><symbol id="bbburst-shape-3" viewBox="0 0 131 127"><path d="m66 0 66 63.5L66 127 0 63.5 66 0Z"></path></symbol><symbol id="bbburst-shape-13" viewBox="0 0 159 159"><path stroke-width="22" d="M11 11h137v137H11z"></path></symbol></defs><use xlink:href="#bbburst-shape-3" width="17.821329915100005" opacity="0.8367932634293245" transform="matrix(0.9848330448024424,0.17350467966354832,-0.17350467966354832,0.9848330448024424,699.6580242062371,-368.15624078796935)" fill="hsl(231, 100%, 64%)"></use><use xlink:href="#bbburst-shape-13" width="36.89445791231684" opacity="0.4387822621235874" transform="matrix(0.9452321314827414,0.3263988627624082,-0.3263988627624082,0.9452321314827414,355.66648368565006,-319.2447953092961)" fill="none" stroke="hsla(353, 98%, 41%, 1.00)"></use><use xlink:href="#bbburst-shape-13" width="16.83632390631148" opacity="0.8090613154568526" transform="matrix(0.819470680123077,-0.5731211079855825,0.5731211079855825,0.819470680123077,518.3796921828322,-137.51892331363575)" fill="none" stroke="hsl(231, 100%, 64%)"></use><use xlink:href="#bbburst-shape-13" width="15.722972033135099" opacity="0.8760263337538684" transform="matrix(0.9695396839631887,0.24493427939053392,-0.24493427939053392,0.9695396839631887,768.6352851580475,-366.1916835273779)" fill="none" stroke="#2c2891"></use><use xlink:href="#bbburst-shape-3" width="15.464034547193677" opacity="0.893552413626876" transform="matrix(0.7915413519735114,-0.6111156094520461,0.6111156094520461,0.7915413519735114,490.29628284350497,-223.31496850067754)" fill="hsl(231, 100%, 64%)"></use><use xlink:href="#bbburst-shape-13" width="52.859722114835364" opacity="0.31742787595195365" transform="matrix(0.7343825645479043,-0.6787357725124287,0.6787357725124287,0.7343825645479043,248.17501536077754,354.91948582293907)" fill="none" stroke="hsl(231, 100%, 64%)"></use><use xlink:href="#bbburst-shape-13" width="33.93186226998821" opacity="0.580787836385354" transform="matrix(0.7454626028863912,0.6665474534478747,-0.6665474534478747,0.7454626028863912,1001.7978283315288,106.45916549187524)" fill="none" stroke="hsla(353, 98%, 41%, 1.00)"></use><use xlink:href="#bbburst-shape-13" width="25.712543345700485" opacity="0.6653506978814575" transform="matrix(0.9488699280084171,-0.3156673244434738,0.3156673244434738,0.9488699280084171,357.255803949661,-236.1884297181175)" fill="none" stroke="hsl(50, 98%, 50%)"></use><use xlink:href="#bbburst-shape-13" width="54.89485561350604" opacity="0.1810362237825618" transform="matrix(0.9998127314603087,0.01935205440971964,-0.01935205440971964,0.9998127314603087,413.82846953896825,331.93801896802904)" fill="none" stroke="hsl(231, 100%, 64%)"></use><use xlink:href="#bbburst-shape-13" width="59.9679599268219" opacity="0.003178382170224703" transform="matrix(0.8285639701477132,-0.5598944073421875,0.5598944073421875,0.8285639701477132,-167.44442079590183,376.16296688901656)" fill="none" stroke="#2c2891"></use><use xlink:href="#bbburst-shape-3" width="29.85518930658353" opacity="0.5894412053043208" transform="matrix(0.9312399758325407,0.36440651395304263,-0.36440651395304263,0.9312399758325407,569.4097028269457,-184.9378987203029)" fill="hsl(231, 100%, 64%)"></use><use xlink:href="#bbburst-shape-3" width="36.65757099383204" opacity="0.631568529947795" transform="matrix(0.9082515940117216,-0.41842447583186004,0.41842447583186004,0.9082515940117216,378.0451668784501,-74.16966041583578)" fill="hsla(353, 98%, 41%, 1.00)"></use><use xlink:href="#bbburst-shape-3" width="40.848711258842094" opacity="0.2368612246583629" transform="matrix(0.978983273669242,0.20394055476009212,-0.20394055476009212,0.978983273669242,682.0839968503385,345.97523347441654)" fill="hsl(231, 100%, 64%)"></use><use xlink:href="#bbburst-shape-3" width="16.66327165241475" opacity="0.8422538770784778" transform="matrix(0.8084985719405136,-0.5884981386292996,0.5884981386292996,0.8084985719405136,419.7374745882271,-242.1769002259851)" fill="hsl(50, 98%, 50%)"></use><use xlink:href="#bbburst-shape-3" width="36.04531902037709" opacity="0.6832000302438397" transform="matrix(0.9977189237706472,-0.06750517868979766,0.06750517868979766,0.9977189237706472,603.4068970192221,-119.62006636255586)" fill="hsl(50, 98%, 50%)"></use><use xlink:href="#bbburst-shape-13" width="45.38971848721354" opacity="0.5725345507612503" transform="matrix(0.8732210829202154,0.48732426611410024,-0.48732426611410024,0.8732210829202154,647.3244787397051,-85.97253667077933)" fill="none" stroke="hsla(353, 98%, 41%, 1.00)"></use><use xlink:href="#bbburst-shape-13" width="56.38849902544555" opacity="0.4189754732743267" transform="matrix(0.9528251567111731,-0.30351972050976916,0.30351972050976916,0.9528251567111731,360.54871575517217,130.22379850099736)" fill="none" stroke="hsl(50, 98%, 50%)"></use><use xlink:href="#bbburst-shape-13" width="16.975880080901625" opacity="0.8864173967841689" transform="matrix(0.780538738124438,0.6251074133995773,-0.6251074133995773,0.780538738124438,948.231772880795,-255.54856236039063)" fill="none" stroke="hsl(50, 98%, 50%)"></use><use xlink:href="#bbburst-shape-3" width="26.8684354543606" opacity="0.7554160949060245" transform="matrix(0.885634761188869,-0.46438246066570493,0.46438246066570493,0.885634761188869,406.93320394375996,-200.76252752597426)" fill="hsl(231, 100%, 64%)"></use><use xlink:href="#bbburst-shape-13" width="40.86335469561567" opacity="0.4802398813178633" transform="matrix(0.9321327299901027,-0.3621167956353288,0.3621167956353288,0.9321327299901027,203.16345235220544,-77.86200097733763)" fill="none" stroke="hsl(50, 98%, 50%)"></use><use xlink:href="#bbburst-shape-13" width="52.261890827067525" opacity="0.5068485448255694" transform="matrix(0.747194316229539,-0.6646056377990421,0.6646056377990421,0.747194316229539,351.1811109471323,183.76519111980883)" fill="none" stroke="hsla(353, 98%, 41%, 1.00)"></use><use xlink:href="#bbburst-shape-13" width="47.320049770700116" opacity="0.5708187816609587" transform="matrix(0.969733504311681,0.24416578510386538,-0.24416578510386538,0.969733504311681,661.5037859879254,-21.19978522222482)" fill="none" stroke="hsla(353, 98%, 41%, 1.00)"></use><use xlink:href="#bbburst-shape-13" width="16.934552370702736" opacity="0.8872941661585527" transform="matrix(0.8993130748556398,0.43730537773241984,-0.43730537773241984,0.8993130748556398,944.2680046701006,-253.10218402082745)" fill="none" stroke="#2c2891"></use><use xlink:href="#bbburst-shape-3" width="17.443145237364742" opacity="0.8043947699537526" transform="matrix(0.889269729495877,-0.4573831525125622,0.4573831525125622,0.889269729495877,464.8830253490384,-219.68509571071507)" fill="hsla(353, 98%, 41%, 1.00)"></use><use xlink:href="#bbburst-shape-13" width="37.11342348207648" opacity="0.5366907730814194" transform="matrix(0.973668854855211,-0.22796701753749812,0.22796701753749812,0.973668854855211,253.0737477184078,-233.2529602317624)" fill="none" stroke="hsl(231, 100%, 64%)"></use><use xlink:href="#bbburst-shape-13" width="20.971345934943322" opacity="0.7275835302169615" transform="matrix(0.8925465905729034,-0.4509551902979784,0.4509551902979784,0.8925465905729034,366.84584358921893,-229.97584194572232)" fill="none" stroke="hsl(231, 100%, 64%)"></use><use xlink:href="#bbburst-shape-13" width="21.99843378165634" opacity="0.7673017266936871" transform="matrix(0.8508053846568346,0.5254809201473787,-0.5254809201473787,0.8508053846568346,977.5852895967575,-114.56806252702981)" fill="none" stroke="hsl(231, 100%, 64%)"></use><use xlink:href="#bbburst-shape-3" width="59.96266285594984" opacity="0.27392727421887775" transform="matrix(0.9776839335887778,-0.2100812366737551,0.2100812366737551,0.9776839335887778,253.8782190586674,198.43620496865958)" fill="#2c2891"></use><use xlink:href="#bbburst-shape-3" width="25.199913432118322" opacity="0.6610825884178027" transform="matrix(0.9601492660791751,0.2794877221768812,-0.2794877221768812,0.9601492660791751,561.8755824537293,-359.2547140129711)" fill="#2c2891"></use><use xlink:href="#bbburst-shape-3" width="9.67400965255066" opacity="0.9822690066792181" transform="matrix(0.7777114371644959,-0.6286214445145301,0.6286214445145301,0.7777114371644959,534.3795637582962,-293.6465842938323)" fill="#2c2891"></use><use xlink:href="#bbburst-shape-3" width="43.5606049020655" opacity="0.23179775568997207" transform="matrix(0.9707197802321198,0.24021471284270873,-0.24021471284270873,0.9707197802321198,186.56413954591838,-52.25206402914631)" fill="hsl(50, 98%, 50%)"></use><use xlink:href="#bbburst-shape-3" width="50.460875155307235" opacity="0.292411948965312" transform="matrix(0.8350723797847242,-0.5501400917227152,0.5501400917227152,0.8350723797847242,506.78794124074534,385.63748773908844)" fill="hsl(231, 100%, 64%)"></use><use xlink:href="#bbburst-shape-13" width="79.57952792823795" opacity="0.09872752405647811" transform="matrix(0.9638278654513528,-0.2665255068084274,0.2665255068084274,0.9638278654513528,106.03580743928322,339.83758009025973)" fill="none" stroke="hsl(50, 98%, 50%)"></use><use xlink:href="#bbburst-shape-3" width="12.965188903609175" opacity="0.8471646608028636" transform="matrix(0.9395702358940323,0.3423562060515807,-0.3423562060515807,0.9395702358940323,913.4154218184927,-226.22158435352875)" fill="#2c2891"></use><use xlink:href="#bbburst-shape-3" width="59.10338854731101" opacity="0.20905967189978236" transform="matrix(0.9200285697817584,-0.39185128656842794,0.39185128656842794,0.9200285697817584,23.527036532105143,167.79811868912645)" fill="hsl(231, 100%, 64%)"></use><use xlink:href="#bbburst-shape-13" width="50.25551912658402" opacity="0.35147977083148785" transform="matrix(0.9171006154782059,0.3986558178297364,-0.3986558178297364,0.9171006154782059,386.9240186949363,-32.422909810454826)" fill="none" stroke="#2c2891"></use><use xlink:href="#bbburst-shape-13" width="60.958476105547895" opacity="0.12048351682568303" transform="matrix(0.7685503610193501,-0.63978929545361,0.63978929545361,0.7685503610193501,-215.50322701127274,193.34283335263302)" fill="none" stroke="hsla(353, 98%, 41%, 1.00)"></use><use xlink:href="#bbburst-shape-13" width="46.51559148335983" opacity="0.24831780044071372" transform="matrix(0.7442766898535738,-0.667871401499276,0.667871401499276,0.7442766898535738,-232.2606290032518,-205.89802274321067)" fill="none" stroke="#2c2891"></use><use xlink:href="#bbburst-shape-3" width="38.65478416043523" opacity="0.5180335612501555" transform="matrix(0.9992972919103913,0.03748229422751833,-0.03748229422751833,0.9992972919103913,316.83660140427844,-344.38923760110436)" fill="#2c2891"></use><use xlink:href="#bbburst-shape-13" width="22.384091266747163" opacity="0.7175712376905439" transform="matrix(0.8281255459094016,-0.5605426658268357,0.5605426658268357,0.8281255459094016,504.19783135935074,-49.50856411345296)" fill="none" stroke="hsla(353, 98%, 41%, 1.00)"></use><use xlink:href="#bbburst-shape-3" width="44.22885477002719" opacity="0.3478321966964244" transform="matrix(0.9851339205057532,0.1717881214431437,-0.1717881214431437,0.9851339205057532,197.5886386452076,-335.47030098715106)" fill="#2c2891"></use><use xlink:href="#bbburst-shape-13" width="13.896739178582186" opacity="0.9266033817851381" transform="matrix(0.9293395755165788,0.3692261547868261,-0.3692261547868261,0.9293395755165788,887.9968896724896,-323.7744088404399)" fill="none" stroke="hsl(50, 98%, 50%)"></use><use xlink:href="#bbburst-shape-13" width="11.254443641761522" opacity="0.9400689994558977" transform="matrix(0.9177430857030302,0.3971745568944222,-0.3971745568944222,0.9177430857030302,895.8684103010255,-353.62883909246756)" fill="none" stroke="hsla(353, 98%, 41%, 1.00)"></use><use xlink:href="#bbburst-shape-3" width="29.23874849765143" opacity="0.6958452429743527" transform="matrix(0.8687044981017266,-0.4953306925457248,0.4953306925457248,0.8687044981017266,293.8581395285093,-266.97614017869773)" fill="hsl(50, 98%, 50%)"></use><use xlink:href="#bbburst-shape-3" width="43.014912463455474" opacity="0.44530353889914787" transform="matrix(0.983442324847706,-0.1812213941512953,0.1812213941512953,0.983442324847706,186.2935200870211,-196.0928375821925)" fill="hsla(353, 98%, 41%, 1.00)"></use><use xlink:href="#bbburst-shape-3" width="47.780521365508754" opacity="0.5008177939114868" transform="matrix(0.9837557605639672,-0.17951212649069254,0.17951212649069254,0.9837557605639672,381.24706201031097,-8.810581227106866)" fill="hsl(231, 100%, 64%)"></use><use xlink:href="#bbburst-shape-3" width="28.976470917775547" opacity="0.6676214878629025" transform="matrix(0.9925714850766745,-0.12166284154451204,0.12166284154451204,0.9925714850766745,704.6827064348067,-64.43362917052156)" fill="hsl(231, 100%, 64%)"></use><use xlink:href="#bbburst-shape-3" width="42.54465931965618" opacity="0.343846317185846" transform="matrix(0.9831185459363452,0.18296973694031013,-0.18296973694031013,0.9831185459363452,225.7319636954772,-201.7673432857099)" fill="#2c2891"></use><use xlink:href="#bbburst-shape-13" width="26.614504235797394" opacity="0.7545705697957136" transform="matrix(0.9183698975016231,0.39572304881426645,-0.39572304881426645,0.9183698975016231,846.0623020065349,-148.48358686562273)" fill="none" stroke="hsla(353, 98%, 41%, 1.00)"></use><use xlink:href="#bbburst-shape-3" width="30.300848633427798" opacity="0.6710711907427274" transform="matrix(0.885236062671187,-0.4651420356691214,0.4651420356691214,0.885236062671187,339.1721604722325,-147.14620157830228)" fill="#2c2891"></use><use xlink:href="#bbburst-shape-13" width="14.911229648083367" opacity="0.9222941475942549" transform="matrix(0.9112986501838227,-0.41174600201233624,0.41174600201233624,0.9112986501838227,609.9888209067407,-285.9826694813107)" fill="none" stroke="hsl(231, 100%, 64%)"></use><use xlink:href="#bbburst-shape-13" width="10.56582407632857" opacity="0.9627974164083126" transform="matrix(0.7879621007680822,0.6157237430480903,-0.6157237430480903,0.7879621007680822,1009.1502768393909,-301.21606298000785)" fill="none" stroke="#2c2891"></use><use xlink:href="#bbburst-shape-13" width="33.28995071343444" opacity="0.5890662962507168" transform="matrix(0.8385736696728117,-0.5447882162193618,0.5447882162193618,0.8385736696728117,159.11067441009857,-286.7074999067292)" fill="none" stroke="#2c2891"></use><use xlink:href="#bbburst-shape-13" width="26.119001462801624" opacity="0.6195655738019368" transform="matrix(0.7749355617834291,0.6320402479932754,-0.6320402479932754,0.7749355617834291,675.7885573745626,-217.68280607275835)" fill="none" stroke="hsl(231, 100%, 64%)"></use><use xlink:href="#bbburst-shape-3" width="17.579283659846805" opacity="0.7962368753162292" transform="matrix(0.9162516693149073,-0.40060314336965175,0.40060314336965175,0.9162516693149073,520.7845421775371,-191.98581568239842)" fill="hsla(353, 98%, 41%, 1.00)"></use><use xlink:href="#bbburst-shape-3" width="10.483602721325978" opacity="0.9525545091147554" transform="matrix(0.8004198499927556,0.599439791586757,-0.599439791586757,0.8004198499927556,1019.248553309722,-278.7763027827862)" fill="hsl(50, 98%, 50%)"></use><use xlink:href="#bbburst-shape-3" width="21.279938153033445" opacity="0.852361054524249" transform="matrix(0.9854907605063516,-0.16972908105746815,0.16972908105746815,0.9854907605063516,622.8231755521017,-282.5963601449276)" fill="hsla(353, 98%, 41%, 1.00)"></use><use xlink:href="#bbburst-shape-13" width="15.011908112904948" opacity="0.9111133603848338" transform="matrix(0.9490226412061921,-0.3152079099229955,0.3152079099229955,0.9490226412061921,580.3474206335685,-356.5572157694487)" fill="none" stroke="hsl(231, 100%, 64%)"></use><use xlink:href="#bbburst-shape-13" width="66.03283327722491" opacity="0.3795831783406963" transform="matrix(0.9997633715478702,-0.021753181634766645,0.021753181634766645,0.9997633715478702,316.30437730748696,36.20420262474687)" fill="none" stroke="#2c2891"></use><use xlink:href="#bbburst-shape-13" width="20.259484919826164" opacity="0.7923509399052497" transform="matrix(0.7846192567407391,-0.6199779205355705,0.6199779205355705,0.7846192567407391,337.7922680112183,-283.6632794629284)" fill="none" stroke="hsl(231, 100%, 64%)"></use><use xlink:href="#bbburst-shape-13" width="25.679544506427924" opacity="0.7552611674611364" transform="matrix(0.8565086223409989,0.51613271535093,-0.51613271535093,0.8565086223409989,759.8426559975704,-283.02188614224076)" fill="none" stroke="#2c2891"></use><use xlink:href="#bbburst-shape-3" width="29.76054930384105" opacity="0.7265509970497086" transform="matrix(0.8967628513594684,-0.4425114556953707,0.4425114556953707,0.8967628513594684,431.59216740333466,-144.45144549413746)" fill="hsl(50, 98%, 50%)"></use><use xlink:href="#bbburst-shape-13" width="16.74387139226444" opacity="0.7320867433755558" transform="matrix(0.8885801929358579,0.4587213105166073,-0.4587213105166073,0.8885801929358579,709.0323548358382,-337.37672096629166)" fill="none" stroke="hsl(231, 100%, 64%)"></use><use xlink:href="#bbburst-shape-3" width="48.70612483397664" opacity="0.2195612393188694" transform="matrix(0.8806071009366744,0.47384716289105894,-0.47384716289105894,0.8806071009366744,220.81613916830574,-138.24696943444812)" fill="hsla(353, 98%, 41%, 1.00)"></use><use xlink:href="#bbburst-shape-13" width="17.01694327818569" opacity="0.7962622858396919" transform="matrix(0.7993235046962585,-0.600900935962069,0.600900935962069,0.7993235046962585,366.8081473707579,-231.54008369289465)" fill="none" stroke="#2c2891"></use><use xlink:href="#bbburst-shape-3" width="37.548234099236126" opacity="0.4746676551463953" transform="matrix(0.7240949671567157,0.6897002816719121,-0.6897002816719121,0.7240949671567157,1017.182619315854,220.7161564051238)" fill="hsla(353, 98%, 41%, 1.00)"></use><use xlink:href="#bbburst-shape-13" width="22.09880489733578" opacity="0.8467928271277844" transform="matrix(0.7961170249202518,-0.60514269609087,0.60514269609087,0.7961170249202518,484.6737193586714,-172.77932870724442)" fill="none" stroke="hsl(231, 100%, 64%)"></use><use xlink:href="#bbburst-shape-3" width="60.68029625336197" opacity="0.3976606892059088" transform="matrix(0.9991611426062047,-0.040951326057447626,0.040951326057447626,0.9991611426062047,622.7074802400556,189.64989370295586)" fill="#2c2891"></use><use xlink:href="#bbburst-shape-13" width="31.218097186504128" opacity="0.6288344521913227" transform="matrix(0.8278513590058623,-0.5609475264159268,0.5609475264159268,0.8278513590058623,444.88995505759783,29.588167257838336)" fill="none" stroke="hsl(50, 98%, 50%)"></use></svg>